<?xml version="1.0" standalone="no"?>
<svg viewBox="0 0 200 200" xmlns="http://www.w3.org/2000/svg">
  <path fill="#CBE7EA" d="M31.4,-59.9C35.6,-46.1,30.3,-28.8,32.9,-16.9C35.5,-5,45.9,1.6,51,11.6C56.1,21.6,56.1,35,48.8,41C41.6,47,27.3,45.5,13.3,53.3C-0.7,61,-14.3,78,-27.6,80.4C-40.9,82.7,-53.9,70.4,-63.4,56.5C-72.9,42.7,-78.9,27.5,-73.2,15.3C-67.6,3.1,-50.4,-6,-42.6,-17.9C-34.8,-29.8,-36.3,-44.4,-30.8,-57.5C-25.3,-70.6,-12.6,-82.3,0.5,-83C13.6,-83.8,27.2,-73.6,31.4,-59.9Z" transform="translate(100 100)" />
</svg>
