<?xml version="1.0" standalone="no"?>
<svg viewBox="0 0 200 200" xmlns="http://www.w3.org/2000/svg">
  <path fill="#FCD279" d="M21.6,-36.5C28.3,-33.4,34.4,-28.4,34.6,-22C34.8,-15.6,29,-7.8,33,2.3C37,12.4,50.7,24.8,54.9,38.8C59.1,52.7,53.7,68.2,43,68.3C32.2,68.4,16.1,53,6.7,41.4C-2.7,29.7,-5.3,21.8,-13.1,20C-21,18.2,-33.9,22.7,-49.1,20.4C-64.2,18.1,-81.4,9,-77.6,2.2C-73.8,-4.6,-49,-9.3,-35.9,-15.1C-22.8,-20.9,-21.5,-27.9,-17.4,-32.5C-13.4,-37.2,-6.7,-39.6,0.4,-40.2C7.4,-40.8,14.8,-39.6,21.6,-36.5Z" transform="translate(100 100)" />
</svg>
