<?xml version="1.0" standalone="no"?>
<svg viewBox="0 0 200 200" xmlns="http://www.w3.org/2000/svg">
  <path fill="#EE8381" d="M39.8,-69.8C51.2,-62.5,59.6,-50.8,64.5,-38.5C69.5,-26.2,71.1,-13.1,74.1,1.7C77,16.5,81.4,33,74.9,42.8C68.5,52.7,51.3,55.8,37,54.7C22.7,53.5,11.4,48,0.1,47.8C-11.1,47.7,-22.3,52.8,-29.9,50.1C-37.4,47.4,-41.4,36.8,-46.8,27.1C-52.1,17.5,-58.8,8.7,-56.9,1.1C-55,-6.6,-44.6,-13.1,-37.8,-20.3C-31,-27.4,-27.9,-35.2,-22.2,-45.8C-16.5,-56.4,-8.3,-69.8,3,-75C14.3,-80.2,28.5,-77.1,39.8,-69.8Z" transform="translate(100 100)" />
</svg>
