<?xml version="1.0" standalone="no"?>
<svg viewBox="0 0 200 200" xmlns="http://www.w3.org/2000/svg">
  <path fill="#CBE7EA" d="M29.1,-39.3C36.5,-40.5,40.4,-30.4,41.9,-20.9C43.4,-11.5,42.4,-2.8,46.8,10.7C51.1,24.3,60.6,42.5,56.3,50.3C52,58.1,33.7,55.5,20.7,49.9C7.7,44.3,-0.2,35.7,-8.5,31.9C-16.8,28.1,-25.7,29,-28.3,25.1C-30.9,21.1,-27.2,12.2,-31.5,2.6C-35.8,-7,-48.2,-17.3,-46.5,-21.4C-44.9,-25.5,-29.3,-23.4,-19.2,-21C-9.1,-18.6,-4.6,-15.9,3.1,-20.8C10.8,-25.6,21.7,-38.1,29.1,-39.3Z" transform="translate(100 100)" />
</svg>
