<?xml version="1.0" standalone="no"?>
<svg viewBox="0 0 200 200" xmlns="http://www.w3.org/2000/svg">
  <path fill="#56C6AA" d="M44.8,-73.8C57.6,-70.3,67,-57.2,75.1,-43.3C83.2,-29.4,89.9,-14.7,87.1,-1.6C84.3,11.4,71.9,22.9,61.9,33.5C51.9,44,44.2,53.7,34.3,59.3C24.4,64.9,12.2,66.3,-1.4,68.7C-14.9,71.1,-29.9,74.4,-42.4,70.3C-55,66.2,-65.1,54.8,-69.5,41.9C-73.9,28.9,-72.6,14.5,-72.7,0C-72.7,-14.5,-74,-29,-69.2,-41.2C-64.4,-53.5,-53.4,-63.4,-40.8,-67.1C-28.2,-70.7,-14.1,-68,1,-69.6C16,-71.3,32.1,-77.3,44.8,-73.8Z" transform="translate(100 100)" />
</svg>
