<?xml version="1.0" standalone="no"?>
<svg viewBox="0 0 200 200" xmlns="http://www.w3.org/2000/svg">
  <path fill="#56C6AA" d="M37,-73.9C42.4,-61,37.4,-39.9,38.2,-26.2C38.9,-12.5,45.3,-6.2,50.5,3C55.8,12.3,59.7,24.5,54.3,30C48.9,35.6,34,34.3,23.4,37.6C12.7,40.8,6.4,48.6,0.1,48.5C-6.2,48.4,-12.5,40.4,-19.6,35.1C-26.6,29.8,-34.5,27.1,-35.8,21.7C-37,16.3,-31.6,8.2,-30.5,0.6C-29.5,-6.9,-32.6,-13.8,-34.3,-24.2C-35.9,-34.5,-35.9,-48.4,-29.9,-61C-24,-73.7,-12,-85.1,1.9,-88.4C15.8,-91.7,31.6,-86.9,37,-73.9Z" transform="translate(100 100)" />
</svg>
