<?xml version="1.0" standalone="no"?>
<svg viewBox="0 0 200 200" xmlns="http://www.w3.org/2000/svg">
  <path fill="#EE8381" d="M23.7,-52.5C26.5,-39.5,21.7,-24.6,30.5,-15.5C39.3,-6.5,61.9,-3.2,63.9,1.2C66,5.6,47.6,11.2,38.1,19.3C28.7,27.3,28.3,37.8,23.5,45.3C18.6,52.7,9.3,57.1,1.5,54.5C-6.3,52,-12.6,42.4,-15.4,33.7C-18.2,25.1,-17.5,17.4,-20.1,11.9C-22.8,6.4,-28.9,3.2,-32.6,-2.1C-36.2,-7.4,-37.4,-14.8,-35.5,-21.8C-33.7,-28.7,-28.8,-35.1,-22.4,-46.1C-16,-57,-8,-72.5,1.2,-74.6C10.5,-76.8,20.9,-65.6,23.7,-52.5Z" transform="translate(100 100)" />
</svg>
