<?xml version="1.0" standalone="no"?>
<svg viewBox="0 0 200 200" xmlns="http://www.w3.org/2000/svg">
  <path fill="#EE8381" d="M31,-45.6C40.3,-48.2,48.1,-40.3,53.8,-30.9C59.5,-21.5,63.1,-10.8,66.8,2.2C70.6,15.1,74.5,30.2,70.5,42.4C66.4,54.6,54.4,64,41.3,63.4C28.2,62.9,14.1,52.4,1.3,50.2C-11.6,48,-23.2,54.2,-30.1,51.2C-37.1,48.2,-39.3,36.1,-36.7,26C-34.1,16,-26.8,8,-26,0.4C-25.3,-7.1,-31.2,-14.3,-35.4,-27.2C-39.7,-40.2,-42.2,-58.9,-36.1,-58.1C-29.9,-57.3,-14.9,-37,-2.1,-33.4C10.8,-29.8,21.6,-43,31,-45.6Z" transform="translate(100 100)" />
</svg>
