<?xml version="1.0" standalone="no"?>
<svg viewBox="0 0 200 200" xmlns="http://www.w3.org/2000/svg">
  <path fill="#EE8381" d="M35.9,-49.7C47.2,-48.5,57.7,-39.8,65.4,-28.3C73.2,-16.7,78.3,-2.4,69.7,5.2C61.1,12.8,38.8,13.5,27.3,19.8C15.8,26,15.2,37.6,11.4,38.7C7.6,39.8,0.7,30.4,-6.2,26.1C-13,21.7,-19.9,22.5,-34.7,21.2C-49.5,20,-72.3,16.8,-76.2,9.1C-80.1,1.4,-65.2,-10.8,-55.6,-22.8C-46.1,-34.8,-41.8,-46.6,-33.4,-49.1C-25,-51.6,-12.5,-44.8,-0.1,-44.6C12.3,-44.4,24.5,-50.8,35.9,-49.7Z" transform="translate(100 100)" />
</svg>
