<?xml version="1.0" standalone="no"?>
<svg viewBox="0 0 200 200" xmlns="http://www.w3.org/2000/svg">
  <path fill="#EE8381" d="M37.9,-69.4C44.4,-61.9,41.9,-42.3,47.6,-28.7C53.4,-15.1,67.5,-7.6,64.6,-1.7C61.7,4.2,41.8,8.5,32.6,16.1C23.5,23.7,24.9,34.7,21.3,47.2C17.6,59.6,8.8,73.5,0.6,72.4C-7.6,71.4,-15.2,55.5,-19.9,43.6C-24.7,31.8,-26.5,24.1,-38.5,17.5C-50.6,10.9,-72.8,5.5,-80.9,-4.7C-89,-14.8,-83,-29.7,-70.3,-35C-57.5,-40.2,-37.9,-36,-25,-39.9C-12.2,-43.8,-6.1,-56,4.8,-64.3C15.7,-72.6,31.4,-77,37.9,-69.4Z" transform="translate(100 100)" />
</svg>
